<svg id="svg" xmlns="http://www.w3.org/2000/svg" xmlns:xlink="http://www.w3.org/1999/xlink" width="400" height="400" viewBox="0, 0, 400,400"><g id="svgg"><path id="path0" d="M56.000 55.752 L 56.000 63.505 67.070 64.423 C 82.193 65.677,81.216 58.205,80.389 166.203 L 79.645 263.406 68.323 265.203 C 57.443 266.930,56.975 267.255,56.373 273.500 L 55.747 280.000 133.588 280.000 L 211.429 280.000 216.438 254.908 L 221.447 229.817 215.665 226.827 C 208.066 222.897,207.254 223.595,198.000 242.000 C 188.257 261.378,193.835 259.246,148.500 260.921 L 110.000 262.343 110.000 164.404 L 110.000 66.466 123.000 65.074 L 136.000 63.682 136.000 55.841 L 136.000 48.000 96.000 48.000 L 56.000 48.000 56.000 55.752 M244.890 119.616 C 196.592 136.655,185.787 182.062,222.232 214.829 C 227.982 219.998,246.430 232.401,263.229 242.391 C 306.733 268.263,316.609 278.805,316.426 299.180 C 316.207 323.506,299.500 336.673,268.915 336.623 C 237.301 336.572,224.106 328.904,217.702 306.863 C 213.442 292.201,213.293 292.000,206.692 292.000 L 200.000 292.000 200.000 316.944 L 200.000 341.888 210.500 344.851 C 285.697 366.068,343.424 343.917,344.530 293.420 C 345.178 263.835,332.269 249.047,280.603 220.185 C 232.973 193.578,220.882 176.867,231.826 152.768 C 239.081 136.792,257.575 128.341,280.121 130.697 C 300.614 132.839,304.358 135.417,311.408 152.235 C 317.068 165.737,318.134 167.054,323.868 167.632 L 330.138 168.264 329.569 146.710 L 329.000 125.156 317.000 121.313 C 299.487 115.705,258.697 114.745,244.890 119.616 " stroke="none" fill="#000000" fill-rule="evenodd"></path></g></svg>